<svg width="197" height="40" viewBox="0 0 197 40" fill="none" xmlns="http://www.w3.org/2000/svg">
<g clip-path="url(#clip0_34_109)">
<path d="M25.0925 1.05386L21.1595 0L17.8451 12.3696L14.8528 1.20224L10.9197 2.2561L14.1527 14.3216L6.10008 6.26898L3.22089 9.14817L12.0536 17.981L1.05386 15.0336L0 18.9666L12.0186 22.187C11.881 21.5935 11.8082 20.9751 11.8082 20.3397C11.8082 15.8421 15.4542 12.1961 19.9518 12.1961C24.4494 12.1961 28.0954 15.8421 28.0954 20.3397C28.0954 20.971 28.0235 21.5856 27.8876 22.1756L38.8103 25.1023L39.8641 21.1693L27.7977 17.9361L38.7982 14.9885L37.7443 11.0555L25.6784 14.2885L33.731 6.23592L30.8518 3.35673L22.1416 12.067L25.0925 1.05386Z" fill="#FF820A"/>
<path d="M27.877 22.2214C27.5398 23.647 26.8279 24.9277 25.8511 25.9538L33.7641 33.8669L36.6433 30.9877L27.877 22.2214Z" fill="#FF820A"/>
<path d="M25.7712 26.0366C24.7826 27.0463 23.5333 27.7998 22.1323 28.1881L25.0117 38.9341L28.9447 37.8802L25.7712 26.0366Z" fill="#FF820A"/>
<path d="M21.985 28.2274C21.335 28.3945 20.6537 28.4833 19.9516 28.4833C19.1994 28.4833 18.471 28.3813 17.7795 28.1904L14.8975 38.9462L18.8305 40L21.985 28.2274Z" fill="#FF820A"/>
<path d="M17.6409 28.1507C16.2613 27.7431 15.0342 26.98 14.0658 25.9674L6.1333 33.8999L9.01249 36.7791L17.6409 28.1507Z" fill="#FF820A"/>
<path d="M13.9994 25.8973C13.0476 24.8783 12.3543 23.6147 12.0243 22.2111L1.06592 25.1474L2.11977 29.0804L13.9994 25.8973Z" fill="#FF820A"/>
<path d="M53.6483 27L50.3703 12.48H53.8243L55.9803 24.294H56.2223L58.7743 12.48H62.8003L65.3523 24.294H65.6163L67.7723 12.48H71.0503L67.7283 27H63.3063L60.8423 15.186H60.6443L58.1803 27H53.6483ZM77.8464 27.308C76.893 27.308 76.0424 27.176 75.2944 26.912C74.561 26.648 73.9377 26.2667 73.4244 25.768C72.911 25.2693 72.515 24.6533 72.2364 23.92C71.9724 23.1867 71.8404 22.358 71.8404 21.434C71.8404 20.5247 71.965 19.6887 72.2144 18.926C72.4784 18.1487 72.8597 17.4813 73.3584 16.924C73.857 16.352 74.4657 15.912 75.1844 15.604C75.903 15.296 76.717 15.142 77.6264 15.142C78.5064 15.142 79.291 15.2887 79.9804 15.582C80.6697 15.8607 81.2417 16.286 81.6964 16.858C82.1657 17.43 82.503 18.134 82.7084 18.97C82.9284 19.7913 83.009 20.7373 82.9504 21.808L73.8864 21.896V20.158L81.1244 20.092L80.0024 20.972C80.105 20.1947 80.0537 19.5567 79.8484 19.058C79.643 18.5593 79.3424 18.1927 78.9464 17.958C78.565 17.7233 78.1397 17.606 77.6704 17.606C77.113 17.606 76.6217 17.7527 76.1964 18.046C75.771 18.3393 75.441 18.772 75.2064 19.344C74.9717 19.9013 74.8544 20.576 74.8544 21.368C74.8544 22.6147 75.1257 23.5313 75.6684 24.118C76.2257 24.7047 76.9517 24.998 77.8464 24.998C78.257 24.998 78.6017 24.9467 78.8804 24.844C79.1737 24.7267 79.4084 24.58 79.5844 24.404C79.775 24.228 79.9217 24.03 80.0244 23.81C80.1417 23.59 80.237 23.37 80.3104 23.15L83.0604 23.744C82.9284 24.2867 82.7304 24.778 82.4664 25.218C82.217 25.6433 81.8797 26.0173 81.4544 26.34C81.029 26.648 80.5157 26.8827 79.9144 27.044C79.3277 27.22 78.6384 27.308 77.8464 27.308ZM87.9891 27.308C87.3437 27.308 86.7717 27.1833 86.2731 26.934C85.7744 26.67 85.3857 26.296 85.1071 25.812C84.8284 25.328 84.6891 24.7267 84.6891 24.008C84.6891 23.3773 84.8064 22.8493 85.0411 22.424C85.2904 21.9987 85.6497 21.654 86.1191 21.39C86.5884 21.126 87.1677 20.906 87.8571 20.73C88.5464 20.554 89.3311 20.4 90.2111 20.268C90.6804 20.1947 91.0617 20.1287 91.3551 20.07C91.6631 19.9967 91.8904 19.8867 92.0371 19.74C92.1837 19.5787 92.2571 19.3513 92.2571 19.058C92.2571 18.6473 92.1104 18.2953 91.8171 18.002C91.5237 17.7087 91.0617 17.562 90.4311 17.562C90.0057 17.562 89.6097 17.6353 89.2431 17.782C88.8911 17.9287 88.5831 18.1487 88.3191 18.442C88.0697 18.7353 87.8864 19.1093 87.7691 19.564L84.9751 18.706C85.1511 18.1047 85.4004 17.584 85.7231 17.144C86.0604 16.704 86.4637 16.3373 86.9331 16.044C87.4024 15.736 87.9377 15.5087 88.5391 15.362C89.1404 15.2153 89.7931 15.142 90.4971 15.142C91.6264 15.142 92.5431 15.3253 93.2471 15.692C93.9657 16.044 94.5011 16.6013 94.8531 17.364C95.2051 18.112 95.3811 19.08 95.3811 20.268V22.248C95.3811 22.7613 95.3884 23.282 95.4031 23.81C95.4324 24.338 95.4617 24.8733 95.4911 25.416C95.5351 25.944 95.5791 26.472 95.6231 27H92.8291C92.7704 26.6333 92.7117 26.2153 92.6531 25.746C92.6091 25.262 92.5724 24.778 92.5431 24.294H92.1471C91.9417 24.8513 91.6484 25.3573 91.2671 25.812C90.8857 26.2667 90.4164 26.6333 89.8591 26.912C89.3164 27.176 88.6931 27.308 87.9891 27.308ZM89.3311 25.02C89.6097 25.02 89.8884 24.9687 90.1671 24.866C90.4604 24.7633 90.7391 24.624 91.0031 24.448C91.2817 24.2573 91.5311 24.0227 91.7511 23.744C91.9857 23.4653 92.1764 23.15 92.3231 22.798L92.2791 20.95L92.7851 21.06C92.5211 21.2507 92.2131 21.4047 91.8611 21.522C91.5091 21.6247 91.1424 21.7053 90.7611 21.764C90.3944 21.8227 90.0277 21.8887 89.6611 21.962C89.2944 22.0353 88.9644 22.1307 88.6711 22.248C88.3924 22.3653 88.1651 22.5267 87.9891 22.732C87.8277 22.9227 87.7471 23.194 87.7471 23.546C87.7471 24.0007 87.8937 24.36 88.1871 24.624C88.4804 24.888 88.8617 25.02 89.3311 25.02ZM102.442 27.264C101.152 27.264 100.198 26.9267 99.5822 26.252C98.9809 25.5627 98.6802 24.47 98.6802 22.974V17.936H97.0082L97.0522 15.45H98.2182C98.6729 15.45 99.0102 15.384 99.2302 15.252C99.4502 15.12 99.5822 14.878 99.6262 14.526L99.9122 12.876H101.716V15.45H104.642V18.024H101.716V22.842C101.716 23.37 101.841 23.7513 102.09 23.986C102.34 24.2207 102.721 24.338 103.234 24.338C103.513 24.338 103.777 24.3087 104.026 24.25C104.29 24.1913 104.518 24.096 104.708 23.964V26.912C104.254 27.0587 103.836 27.154 103.454 27.198C103.073 27.242 102.736 27.264 102.442 27.264ZM106.896 27V19.74V11.27H110.086V14.878C110.086 15.1713 110.072 15.4793 110.042 15.802C110.028 16.1247 109.991 16.4547 109.932 16.792C109.888 17.1147 109.837 17.4447 109.778 17.782C109.734 18.1193 109.683 18.4567 109.624 18.794H110.108C110.314 18.046 110.57 17.4007 110.878 16.858C111.201 16.3153 111.612 15.8973 112.11 15.604C112.609 15.296 113.24 15.142 114.002 15.142C115.352 15.142 116.364 15.6187 117.038 16.572C117.713 17.5107 118.05 18.9553 118.05 20.906V27H114.86V21.39C114.86 20.158 114.677 19.2487 114.31 18.662C113.958 18.0607 113.423 17.76 112.704 17.76C112.118 17.76 111.634 17.936 111.252 18.288C110.871 18.64 110.585 19.1167 110.394 19.718C110.204 20.3047 110.094 20.9647 110.064 21.698V27H106.896ZM126.143 27.308C125.19 27.308 124.339 27.176 123.591 26.912C122.858 26.648 122.235 26.2667 121.721 25.768C121.208 25.2693 120.812 24.6533 120.533 23.92C120.269 23.1867 120.137 22.358 120.137 21.434C120.137 20.5247 120.262 19.6887 120.511 18.926C120.775 18.1487 121.157 17.4813 121.655 16.924C122.154 16.352 122.763 15.912 123.481 15.604C124.2 15.296 125.014 15.142 125.923 15.142C126.803 15.142 127.588 15.2887 128.277 15.582C128.967 15.8607 129.539 16.286 129.993 16.858C130.463 17.43 130.8 18.134 131.005 18.97C131.225 19.7913 131.306 20.7373 131.247 21.808L122.183 21.896V20.158L129.421 20.092L128.299 20.972C128.402 20.1947 128.351 19.5567 128.145 19.058C127.94 18.5593 127.639 18.1927 127.243 17.958C126.862 17.7233 126.437 17.606 125.967 17.606C125.41 17.606 124.919 17.7527 124.493 18.046C124.068 18.3393 123.738 18.772 123.503 19.344C123.269 19.9013 123.151 20.576 123.151 21.368C123.151 22.6147 123.423 23.5313 123.965 24.118C124.523 24.7047 125.249 24.998 126.143 24.998C126.554 24.998 126.899 24.9467 127.177 24.844C127.471 24.7267 127.705 24.58 127.881 24.404C128.072 24.228 128.219 24.03 128.321 23.81C128.439 23.59 128.534 23.37 128.607 23.15L131.357 23.744C131.225 24.2867 131.027 24.778 130.763 25.218C130.514 25.6433 130.177 26.0173 129.751 26.34C129.326 26.648 128.813 26.8827 128.211 27.044C127.625 27.22 126.935 27.308 126.143 27.308ZM133.558 27V21.412V15.45H136.176L136.198 19.388H136.616C136.734 18.4053 136.932 17.606 137.21 16.99C137.504 16.374 137.907 15.9193 138.42 15.626C138.934 15.3327 139.572 15.186 140.334 15.186C140.466 15.186 140.606 15.1933 140.752 15.208C140.914 15.208 141.097 15.23 141.302 15.274L141.17 18.64C140.95 18.5373 140.708 18.464 140.444 18.42C140.18 18.376 139.946 18.354 139.74 18.354C139.168 18.354 138.677 18.486 138.266 18.75C137.856 19.014 137.518 19.3953 137.254 19.894C137.005 20.378 136.836 20.972 136.748 21.676V27H133.558ZM148.322 27V12.48H152.458L159.036 22.754H159.278L159.08 12.48H162.16V27H158.42L151.468 16.242H151.226L151.424 27H148.322ZM170.462 27.308C169.304 27.308 168.284 27.0807 167.404 26.626C166.524 26.1567 165.835 25.4747 165.336 24.58C164.838 23.6707 164.588 22.5413 164.588 21.192C164.588 19.8427 164.838 18.7207 165.336 17.826C165.85 16.9313 166.546 16.264 167.426 15.824C168.321 15.3693 169.333 15.142 170.462 15.142C171.621 15.142 172.64 15.3693 173.52 15.824C174.415 16.2787 175.112 16.9607 175.61 17.87C176.124 18.7647 176.38 19.8867 176.38 21.236C176.38 22.6 176.116 23.7367 175.588 24.646C175.075 25.5407 174.371 26.208 173.476 26.648C172.596 27.088 171.592 27.308 170.462 27.308ZM170.572 24.954C171.144 24.954 171.621 24.822 172.002 24.558C172.398 24.294 172.692 23.898 172.882 23.37C173.088 22.8273 173.19 22.1747 173.19 21.412C173.19 20.6053 173.08 19.9233 172.86 19.366C172.655 18.794 172.347 18.3613 171.936 18.068C171.526 17.76 171.005 17.606 170.374 17.606C169.832 17.606 169.362 17.738 168.966 18.002C168.57 18.2513 168.27 18.6473 168.064 19.19C167.859 19.718 167.756 20.3707 167.756 21.148C167.756 22.3947 168.006 23.3407 168.504 23.986C169.003 24.6313 169.692 24.954 170.572 24.954ZM180.306 27L177.446 15.45H180.746L182.374 24.492H182.792L184.728 15.45H188.534L190.536 24.492H190.954L192.538 15.45H195.772L192.89 27H188.534L186.73 18.024H186.356L184.64 27H180.306Z" fill="white"/>
</g>
<defs>
<clipPath id="clip0_34_109">
<rect width="196.864" height="40" fill="white"/>
</clipPath>
</defs>
</svg>
